<mxfile host="app.diagrams.net" modified="2024-03-26T12:07:48.515Z" agent="Mozilla/5.0 (Windows NT 10.0; Win64; x64) AppleWebKit/537.36 (KHTML, like Gecko) Chrome/123.0.0.0 Safari/537.36" version="24.1.0" etag="BHVcpYb4YdiDO0R2wX7Z" type="github">
  <diagram name="Page-1" id="tdAfa4BMSDa0DNz9T3hS">
    <mxGraphModel>
      <root>
        <mxCell id="0" />
        <mxCell id="1" parent="0" />
      </root>
    </mxGraphModel>
  </diagram>
</mxfile>
